<mxfile host="app.diagrams.net" modified="2021-11-05T02:29:47.507Z" agent="5.0 (Windows NT 10.0; Win64; x64) AppleWebKit/537.36 (KHTML, like Gecko) Chrome/95.0.4638.54 Safari/537.36" etag="jnbEztYrCVbHK-1WELR_" version="15.6.8" type="github">
  <diagram id="x1_IF0F-ityjWPTH8Hxk" name="第 1 页">
    <mxGraphModel dx="1422" dy="761" grid="1" gridSize="10" guides="1" tooltips="1" connect="1" arrows="1" fold="1" page="1" pageScale="1" pageWidth="827" pageHeight="1169" math="0" shadow="0">
      <root>
        <mxCell id="0" />
        <mxCell id="1" parent="0" />
        <mxCell id="O3nfWkJQEuqTl7Qxp4t2-1" value="用户(发布者)" style="swimlane;" vertex="1" parent="1">
          <mxGeometry x="214" y="120" width="396" height="560" as="geometry" />
        </mxCell>
        <mxCell id="O3nfWkJQEuqTl7Qxp4t2-4" value="注册用户" style="rounded=0;whiteSpace=wrap;html=1;" vertex="1" parent="O3nfWkJQEuqTl7Qxp4t2-1">
          <mxGeometry x="138" y="70" width="122" height="30" as="geometry" />
        </mxCell>
        <mxCell id="O3nfWkJQEuqTl7Qxp4t2-10" value="发布秀文明" style="rounded=0;whiteSpace=wrap;html=1;" vertex="1" parent="O3nfWkJQEuqTl7Qxp4t2-1">
          <mxGeometry x="139" y="140" width="122" height="30" as="geometry" />
        </mxCell>
        <mxCell id="O3nfWkJQEuqTl7Qxp4t2-24" value="成功发布" style="rounded=0;whiteSpace=wrap;html=1;" vertex="1" parent="O3nfWkJQEuqTl7Qxp4t2-1">
          <mxGeometry x="137" y="350" width="122" height="30" as="geometry" />
        </mxCell>
        <mxCell id="O3nfWkJQEuqTl7Qxp4t2-31" value="用户评论、点赞" style="rounded=0;whiteSpace=wrap;html=1;" vertex="1" parent="O3nfWkJQEuqTl7Qxp4t2-1">
          <mxGeometry x="137" y="450" width="122" height="30" as="geometry" />
        </mxCell>
        <mxCell id="O3nfWkJQEuqTl7Qxp4t2-2" value="B端" style="swimlane;" vertex="1" parent="1">
          <mxGeometry x="610" y="120" width="396" height="560" as="geometry" />
        </mxCell>
        <mxCell id="O3nfWkJQEuqTl7Qxp4t2-12" value="文明秀" style="rounded=0;whiteSpace=wrap;html=1;" vertex="1" parent="O3nfWkJQEuqTl7Qxp4t2-2">
          <mxGeometry x="137" y="230" width="122" height="30" as="geometry" />
        </mxCell>
        <mxCell id="O3nfWkJQEuqTl7Qxp4t2-13" value="内容管理" style="rounded=0;whiteSpace=wrap;html=1;" vertex="1" parent="O3nfWkJQEuqTl7Qxp4t2-2">
          <mxGeometry x="137" y="90" width="122" height="30" as="geometry" />
        </mxCell>
        <mxCell id="O3nfWkJQEuqTl7Qxp4t2-14" value="审核管理" style="rounded=0;whiteSpace=wrap;html=1;" vertex="1" parent="O3nfWkJQEuqTl7Qxp4t2-2">
          <mxGeometry x="137" y="160" width="122" height="30" as="geometry" />
        </mxCell>
        <mxCell id="O3nfWkJQEuqTl7Qxp4t2-15" value="" style="endArrow=classic;html=1;rounded=0;exitX=0.5;exitY=1;exitDx=0;exitDy=0;" edge="1" parent="O3nfWkJQEuqTl7Qxp4t2-2" source="O3nfWkJQEuqTl7Qxp4t2-13" target="O3nfWkJQEuqTl7Qxp4t2-14">
          <mxGeometry width="50" height="50" relative="1" as="geometry">
            <mxPoint x="320" y="300" as="sourcePoint" />
            <mxPoint x="370" y="250" as="targetPoint" />
          </mxGeometry>
        </mxCell>
        <mxCell id="O3nfWkJQEuqTl7Qxp4t2-16" value="" style="endArrow=classic;html=1;rounded=0;entryX=0.5;entryY=0;entryDx=0;entryDy=0;" edge="1" parent="O3nfWkJQEuqTl7Qxp4t2-2" target="O3nfWkJQEuqTl7Qxp4t2-12">
          <mxGeometry width="50" height="50" relative="1" as="geometry">
            <mxPoint x="198" y="190" as="sourcePoint" />
            <mxPoint x="370" y="250" as="targetPoint" />
          </mxGeometry>
        </mxCell>
        <mxCell id="O3nfWkJQEuqTl7Qxp4t2-19" value="审核通过" style="ellipse;whiteSpace=wrap;html=1;fillColor=#d5e8d4;strokeColor=#82b366;" vertex="1" parent="O3nfWkJQEuqTl7Qxp4t2-2">
          <mxGeometry x="80" y="290" width="80" height="40" as="geometry" />
        </mxCell>
        <mxCell id="O3nfWkJQEuqTl7Qxp4t2-18" value="未通过" style="ellipse;whiteSpace=wrap;html=1;fillColor=#f8cecc;strokeColor=#b85450;" vertex="1" parent="O3nfWkJQEuqTl7Qxp4t2-2">
          <mxGeometry x="230" y="290" width="80" height="40" as="geometry" />
        </mxCell>
        <mxCell id="O3nfWkJQEuqTl7Qxp4t2-20" value="" style="endArrow=classic;html=1;rounded=0;exitX=0.25;exitY=1;exitDx=0;exitDy=0;entryX=0.5;entryY=0;entryDx=0;entryDy=0;edgeStyle=orthogonalEdgeStyle;curved=1;" edge="1" parent="O3nfWkJQEuqTl7Qxp4t2-2" source="O3nfWkJQEuqTl7Qxp4t2-12" target="O3nfWkJQEuqTl7Qxp4t2-19">
          <mxGeometry width="50" height="50" relative="1" as="geometry">
            <mxPoint x="320" y="300" as="sourcePoint" />
            <mxPoint x="370" y="250" as="targetPoint" />
          </mxGeometry>
        </mxCell>
        <mxCell id="O3nfWkJQEuqTl7Qxp4t2-21" value="" style="endArrow=classic;html=1;rounded=0;curved=1;exitX=0.75;exitY=1;exitDx=0;exitDy=0;entryX=0.5;entryY=0;entryDx=0;entryDy=0;edgeStyle=orthogonalEdgeStyle;" edge="1" parent="O3nfWkJQEuqTl7Qxp4t2-2" source="O3nfWkJQEuqTl7Qxp4t2-12" target="O3nfWkJQEuqTl7Qxp4t2-18">
          <mxGeometry width="50" height="50" relative="1" as="geometry">
            <mxPoint x="320" y="300" as="sourcePoint" />
            <mxPoint x="370" y="250" as="targetPoint" />
          </mxGeometry>
        </mxCell>
        <mxCell id="O3nfWkJQEuqTl7Qxp4t2-3" value="P端" style="swimlane;" vertex="1" parent="1">
          <mxGeometry x="1006" y="120" width="396" height="560" as="geometry" />
        </mxCell>
        <mxCell id="O3nfWkJQEuqTl7Qxp4t2-27" value="内容管理" style="rounded=0;whiteSpace=wrap;html=1;" vertex="1" parent="O3nfWkJQEuqTl7Qxp4t2-3">
          <mxGeometry x="134" y="310" width="122" height="30" as="geometry" />
        </mxCell>
        <mxCell id="O3nfWkJQEuqTl7Qxp4t2-28" value="秀文明" style="rounded=0;whiteSpace=wrap;html=1;" vertex="1" parent="O3nfWkJQEuqTl7Qxp4t2-3">
          <mxGeometry x="134" y="400" width="122" height="30" as="geometry" />
        </mxCell>
        <mxCell id="O3nfWkJQEuqTl7Qxp4t2-29" value="" style="endArrow=classic;html=1;rounded=0;exitX=0.5;exitY=1;exitDx=0;exitDy=0;entryX=0.5;entryY=0;entryDx=0;entryDy=0;" edge="1" parent="O3nfWkJQEuqTl7Qxp4t2-3" source="O3nfWkJQEuqTl7Qxp4t2-27" target="O3nfWkJQEuqTl7Qxp4t2-28">
          <mxGeometry width="50" height="50" relative="1" as="geometry">
            <mxPoint x="-286" y="300" as="sourcePoint" />
            <mxPoint x="-236" y="250" as="targetPoint" />
          </mxGeometry>
        </mxCell>
        <mxCell id="O3nfWkJQEuqTl7Qxp4t2-9" value="" style="endArrow=classic;html=1;rounded=0;exitX=0.5;exitY=1;exitDx=0;exitDy=0;" edge="1" parent="1" source="O3nfWkJQEuqTl7Qxp4t2-4">
          <mxGeometry width="50" height="50" relative="1" as="geometry">
            <mxPoint x="610" y="420" as="sourcePoint" />
            <mxPoint x="413" y="260" as="targetPoint" />
          </mxGeometry>
        </mxCell>
        <mxCell id="O3nfWkJQEuqTl7Qxp4t2-11" value="" style="endArrow=classic;html=1;rounded=0;exitX=0.5;exitY=1;exitDx=0;exitDy=0;entryX=0;entryY=0.5;entryDx=0;entryDy=0;" edge="1" parent="1" source="O3nfWkJQEuqTl7Qxp4t2-10" target="O3nfWkJQEuqTl7Qxp4t2-12">
          <mxGeometry width="50" height="50" relative="1" as="geometry">
            <mxPoint x="610" y="420" as="sourcePoint" />
            <mxPoint x="1080" y="330" as="targetPoint" />
            <Array as="points">
              <mxPoint x="414" y="365" />
            </Array>
          </mxGeometry>
        </mxCell>
        <mxCell id="O3nfWkJQEuqTl7Qxp4t2-25" value="" style="endArrow=classic;html=1;rounded=0;exitX=0.5;exitY=1;exitDx=0;exitDy=0;entryX=1;entryY=0.5;entryDx=0;entryDy=0;" edge="1" parent="1" source="O3nfWkJQEuqTl7Qxp4t2-19" target="O3nfWkJQEuqTl7Qxp4t2-24">
          <mxGeometry width="50" height="50" relative="1" as="geometry">
            <mxPoint x="720" y="420" as="sourcePoint" />
            <mxPoint x="770" y="370" as="targetPoint" />
            <Array as="points">
              <mxPoint x="730" y="485" />
            </Array>
          </mxGeometry>
        </mxCell>
        <mxCell id="O3nfWkJQEuqTl7Qxp4t2-26" value="" style="endArrow=classic;html=1;rounded=0;dashed=1;entryX=0;entryY=0.5;entryDx=0;entryDy=0;exitX=0.5;exitY=1;exitDx=0;exitDy=0;" edge="1" parent="1" source="O3nfWkJQEuqTl7Qxp4t2-24" target="O3nfWkJQEuqTl7Qxp4t2-28">
          <mxGeometry width="50" height="50" relative="1" as="geometry">
            <mxPoint x="480" y="520" as="sourcePoint" />
            <mxPoint x="1130" y="540" as="targetPoint" />
            <Array as="points">
              <mxPoint x="412" y="535" />
            </Array>
          </mxGeometry>
        </mxCell>
        <mxCell id="O3nfWkJQEuqTl7Qxp4t2-30" value="" style="endArrow=classic;html=1;rounded=0;exitX=0.5;exitY=1;exitDx=0;exitDy=0;" edge="1" parent="1" source="O3nfWkJQEuqTl7Qxp4t2-24">
          <mxGeometry width="50" height="50" relative="1" as="geometry">
            <mxPoint x="340" y="560" as="sourcePoint" />
            <mxPoint x="412" y="570" as="targetPoint" />
          </mxGeometry>
        </mxCell>
      </root>
    </mxGraphModel>
  </diagram>
</mxfile>
